HIERARCHY
ROOT Hips
{
  OFFSET 3.13124 94.3669 -3.18751
  CHANNELS  6 Xposition Yposition Zposition Zrotation Xrotation Yrotation
  JOINT LeftUpLeg
  {
    OFFSET 8.64259 1.95398 -2.38835
    CHANNELS 3 Zrotation Xrotation Yrotation
    JOINT LeftLeg
    {
      OFFSET 43.7702 0 0
      CHANNELS 3 Zrotation Xrotation Yrotation
      JOINT LeftFoot
      {
        OFFSET 40.6238 0 0
        CHANNELS 3 Zrotation Xrotation Yrotation
        JOINT LeftToeBase
        {
          OFFSET 12.7242 0 0
          CHANNELS 3 Zrotation Xrotation Yrotation
          End Site
          {
            OFFSET 0 0 0
          }
        }
      }
    }
  }
  JOINT RightUpLeg
  {
    OFFSET -8.2249 1.95398 -2.59336
    CHANNELS 3 Zrotation Xrotation Yrotation
    JOINT RightLeg
    {
      OFFSET 43.5653 0 0
      CHANNELS 3 Zrotation Xrotation Yrotation
      JOINT RightFoot
      {
        OFFSET 40.6238 0 0
        CHANNELS 3 Zrotation Xrotation Yrotation
        JOINT RightToeBase
        {
          OFFSET 12.7242 0 0
          CHANNELS 3 Zrotation Xrotation Yrotation
          End Site
          {
            OFFSET 0 0 0
          }
        }
      }
    }
  }
  JOINT Spine
  {
    OFFSET 0.165834 0.87714 6.61349
    CHANNELS 3 Zrotation Xrotation Yrotation
    JOINT Spine1
    {
      OFFSET 7.38962 1.71661e-005 0
      CHANNELS 3 Zrotation Xrotation Yrotation
      JOINT Spine2
      {
        OFFSET 11.9445 1.14441e-005 0
        CHANNELS 3 Zrotation Xrotation Yrotation
        JOINT Spine3
        {
          OFFSET 14.7254 4.19617e-005 0
          CHANNELS 3 Zrotation Xrotation Yrotation
          JOINT Spine4
          {
            OFFSET 10.9679 0 0
            CHANNELS 3 Zrotation Xrotation Yrotation
            JOINT RightShoulder
            {
              OFFSET 2.46616 -1.6653 3.69651
              CHANNELS 3 Zrotation Xrotation Yrotation
              JOINT RightArm
              {
                OFFSET 13.0012 0 0
                CHANNELS 3 Zrotation Xrotation Yrotation
                JOINT RightForeArm
                {
                  OFFSET 28.7848 1.52588e-005 0
                  CHANNELS 3 Zrotation Xrotation Yrotation
                  JOINT RightHand
                  {
                    OFFSET 26.5688 1.52588e-005 0
                    CHANNELS 3 Zrotation Xrotation Yrotation
                    End Site
                    {
                      OFFSET 0 0 0
                    }
                  }
                }
              }
            }
            JOINT LeftShoulder
            {
              OFFSET 2.38034 -1.29275 -3.75231
              CHANNELS 3 Zrotation Xrotation Yrotation
              JOINT LeftArm
              {
                OFFSET 16.3182 6.10352e-005 0
                CHANNELS 3 Zrotation Xrotation Yrotation
                JOINT LeftForeArm
                {
                  OFFSET 27.0901 0 0
                  CHANNELS 3 Zrotation Xrotation Yrotation
                  JOINT LeftHand
                  {
                    OFFSET 24.5451 1.52588e-005 0
                    CHANNELS 3 Zrotation Xrotation Yrotation
                    End Site
                    {
                      OFFSET 0 0 0
                    }
                  }
                }
              }
            }
            JOINT Neck
            {
              OFFSET 5.0226 -0.0266342 0
              CHANNELS 3 Zrotation Xrotation Yrotation
              JOINT Head
              {
                OFFSET 6.69363 2.86102e-005 0
                CHANNELS 3 Zrotation Xrotation Yrotation
                End Site
                {
                  OFFSET 0 0 0
                }
              }
            }
          }
        }
      }
    }
  }
}
MOTION
Frames:	9
Frame Time:	0.0333333
-86.2385 48.3656 -105.809 125.176 -76.8844 96.9148 -161.201 68.7005 102.762 -96.4166 19.0976 3.59436 58.6798 -6.33967 -4.59551 28.7808 6.32574e-006 2.34968e-006 -99.2812 63.2833 12.86 -142.832 15.9948 -3.08375 78.6329 2.11297 0.591191 28.7808 1.48943e-005 2.50609e-005 -4.81163 11.4197 -79.2215 3.34955 0.304994 5.51929 -8.33298 0.547234 5.5006 -30.778 -1.36543 5.35688 -10.7653 -1.36542 5.35689 98.9061 -17.7369 -90.4364 -12.13 31.3737 -63.0259 -2.38674 0.415356 -79.6663 -5.37983 -0.320026 -0.016241 -81.3357 -11.4623 87.2982 -5.12755 -21.7092 -30.7761 -37.3768 -4.83052 -79.4285 -5.89156 1.50237 -53.1044 -1.10355 0.892622 -11.0982 -23.3738 -1.00442 17.6047 
-85.6416 50.326 -105.768 126.362 -80.3513 99.4069 -161.688 66.836 105.064 -95.2122 17.2323 2.93729 60.2476 -6.76004 -4.6787 28.7808 6.32574e-006 2.34968e-006 -104.381 64.8441 15.8423 -139.67 14.7423 -2.91053 82.8873 0.180645 -0.228322 28.7808 1.48943e-005 2.50609e-005 -4.55333 11.2878 -79.3006 3.64363 0.325754 5.1314 -8.03731 0.550983 5.11217 -30.4943 -1.22951 4.99291 -10.4816 -1.22951 4.99292 99.2069 -17.1209 -89.7702 -11.9272 33.2678 -63.8979 -2.30119 0.472331 -79.7403 -5.37983 -0.320026 -0.016241 -81.4026 -11.3111 87.0853 -4.41935 -23.7041 -24.4099 -32.8377 -6.49419 -76.2813 -8.72106 2.80031 -53.2652 -1.88097 1.83554 -11.6625 -23.5727 -0.846884 21.4136 
-85.2825 52.086 -105.506 110.188 -85.4625 85.395 -162.224 67.0883 109.35 -94.0692 15.5966 1.54912 61.2595 -6.31073 -4.29087 28.7808 6.32574e-006 2.34968e-006 -102.386 70.0533 12.4224 -136.277 15.8057 -2.62446 83.936 -3.74314 -1.55633 28.7808 1.48943e-005 2.50609e-005 -4.49584 10.9164 -79.3556 4.41363 0.720622 4.64147 -7.26526 0.923987 4.60537 -29.7346 -0.706058 4.64371 -9.72199 -0.706046 4.6437 99.4348 -16.6675 -89.2522 -11.3076 35.0538 -64.8052 -2.23719 0.331401 -80.3345 -5.37983 -0.320026 -0.016241 -81.4152 -11.2012 87.0277 -4.86136 -26.5963 -19.3588 -23.1531 -7.67259 -71.7045 -15.1878 5.81667 -53.8984 -2.6615 2.8985 -11.2301 -23.2403 -0.281496 23.6257 
-84.0628 54.8421 -105.366 66.4779 -88.2368 42.1256 -160.886 64.5923 108.469 -92.0114 12.9733 -0.122369 62.4955 -6.33083 -4.16164 28.7808 6.32574e-006 2.34968e-006 -107.855 70.3762 15.9974 -131.857 15.5706 -2.34989 85.9851 -5.21613 -1.98274 28.7808 1.48943e-005 2.50609e-005 -4.36566 10.7381 -79.4146 4.7886 0.742517 4.40211 -6.88945 0.935371 4.36527 -29.3653 -0.61345 4.42189 -9.35264 -0.613444 4.4219 99.7864 -16.7054 -88.3324 -10.3817 36.6118 -65.9475 -2.15387 -0.318556 -81.3003 -5.37983 -0.320026 -0.016241 -81.3716 -11.1407 87.1308 -5.32002 -27.6679 -15.1968 -19.8427 -6.87225 -68.5704 -7.01012 2.31742 -58.7519 -3.40891 3.54278 -10.8621 -23.3002 -0.0721757 25.1953 
-82.7299 57.7335 -105.071 -16.3696 -86.9027 -40.3816 -159.976 61.9343 107.531 -89.6607 10.3674 -1.87461 63.4449 -6.58033 -4.19376 28.7808 6.32574e-006 2.34968e-006 -115.221 70.628 21.6368 -126.726 17.0137 -1.96168 88.9302 -6.3526 -2.22942 28.7808 1.48943e-005 2.50609e-005 -4.23482 10.5716 -79.5789 5.14525 0.730121 4.05353 -6.5317 0.907674 4.01756 -29.0164 -0.520801 4.08564 -9.00379 -0.520798 4.08565 100.305 -15.8089 -87.0819 -9.65726 37.5783 -67.3203 -2.00226 -0.541515 -81.131 -5.37983 -0.320026 -0.016241 -81.1823 -12.1956 87.8594 -7.51046 -29.8009 -13.2434 -7.17148 -3.85237 -64.5789 -3.29859 0.359289 -55.8245 -4.0513 4.28307 -9.40601 -22.8317 0.363945 26.227 
-81.3006 60.7274 -104.696 -32.604 -83.8305 -56.5067 -159.177 59.0439 106.326 -87.1032 7.70005 -3.91653 64.4883 -6.6541 -4.10837 28.7808 6.32574e-006 2.34968e-006 -121.17 70.5199 26.1378 -121.427 18.1571 -1.60795 90.4309 -7.34351 -2.46088 28.7808 1.48943e-005 2.50609e-005 -4.13202 10.4298 -79.8069 5.45365 0.692128 3.83819 -6.22268 0.860263 3.80407 -28.7126 -0.492481 3.86882 -8.7 -0.492484 3.86881 100.37 -14.6142 -87.0421 -7.85017 38.5732 -67.7258 -1.84381 -0.633384 -81.8317 -5.37983 -0.320026 -0.016241 -80.8604 -12.9669 88.8478 -9.76768 -31.0686 -11.5172 2.04446 -0.582676 -61.4895 0.85012 -1.50588 -51.621 -4.05698 5.16576 -8.5126 -22.5784 0.932682 27.7056 
-80.0323 63.7118 -104.03 -41.7241 -81.2412 -65.5749 -158.687 55.4277 105.538 -84.2899 5.83335 -5.88063 65.2683 -5.83556 -3.56583 28.7808 6.32574e-006 2.34968e-006 -127.831 69.9985 31.7044 -116.497 18.988 -1.31802 90.1815 -8.44863 -2.811 28.7808 1.48943e-005 2.50609e-005 -3.95104 10.379 -80.1076 5.59045 0.609373 3.55698 -6.08512 0.765235 3.5268 -28.5815 -0.487097 3.57576 -8.56887 -0.487096 3.57577 100.248 -13.6276 -87.4902 -6.22458 39.8625 -67.7289 -1.67074 -0.823894 -83.0087 -5.37983 -0.320026 -0.016241 -80.491 -15.0623 90.1287 -11.5145 -31.7648 -10.8618 8.18053 2.25568 -58.5462 3.0892 -2.27868 -48.0024 -3.84065 5.97115 -7.33884 -22.252 1.41775 29.2605 
-78.7956 66.5177 -103.278 -48.3719 -78.9922 -72.3842 -158.587 51.4419 104.76 -81.3163 4.1743 -7.73509 65.9641 -5.0552 -3.06517 28.7808 6.32574e-006 2.34968e-006 -134.396 68.9882 37.3621 -111.725 20.6005 -0.999112 89.6232 -9.34689 -3.13614 28.7808 1.48943e-005 2.50609e-005 -3.71793 10.3916 -80.4978 5.60989 0.50245 3.30506 -6.06511 0.647346 3.27976 -28.5669 -0.513516 3.30334 -8.55426 -0.513507 3.30334 100.297 -12.0796 -87.5524 -3.70757 40.9258 -67.9887 -1.37541 -1.11649 -84.2401 -5.37983 -0.320026 -0.016241 -80.2327 -17.7597 91.1098 -13.3144 -32.3939 -10.6544 16.4625 6.82418 -56.0679 5.31936 -2.92966 -44.8199 -3.52078 6.96469 -5.8422 -21.7962 2.16223 30.5091 
-77.7245 69.2413 -102.512 -51.7182 -76.7412 -75.9134 -158.837 47.5631 104.009 -77.8635 2.709 -9.43426 66.4407 -4.58778 -2.76543 28.7808 6.32574e-006 2.34968e-006 -140.181 67.9738 42.4505 -106.892 22.4605 -0.675062 88.8374 -10.5375 -3.58625 28.7808 1.48943e-005 2.50609e-005 -3.48304 10.3927 -80.9329 5.65709 0.430389 3.19577 -6.01764 0.570556 3.17376 -28.5217 -0.549459 3.17748 -8.50912 -0.549461 3.17748 100.398 -12.1723 -87.2499 -1.16672 41.7569 -68.6755 -1.11072 -1.31454 -86.3675 -5.37983 -0.320026 -0.016241 -80.218 -20.3786 91.4317 -14.4641 -33.0624 -10.4971 24.1073 12.1637 -53.5541 6.86367 -3.29426 -42.599 -2.54257 7.99454 -6.13202 -21.8627 2.78269 33.0277 
